# Blender 5.1.2
# www.blender.org
mtllib pedestal.mtl
o Cube.001
v -1.000000 -0.200000 1.000000
v -1.000000 0.000000 1.000000
v -1.000000 -0.200000 -1.000000
v -1.000000 0.000000 -1.000000
v 1.000000 -0.200000 1.000000
v 1.000000 0.000000 1.000000
v 1.000000 -0.200000 -1.000000
v 1.000000 0.000000 -1.000000
v -1.000000 1.280608 0.701766
v -1.000000 1.433817 0.830323
v -1.000000 2.566183 -0.830323
v -1.000000 2.719392 -0.701766
v 1.000000 1.280608 0.701766
v 1.000000 1.433817 0.830323
v 1.000000 2.566183 -0.830323
v 1.000000 2.719392 -0.701766
v 0.300000 0.000000 -0.300000
v 0.300000 1.800000 -0.300000
v 0.300000 0.000000 0.300000
v 0.300000 1.800000 0.300000
v -0.300000 0.000000 -0.300000
v -0.300000 1.800000 -0.300000
v -0.300000 0.000000 0.300000
v -0.300000 1.800000 0.300000
v 0.300000 0.000000 -0.300000
v 0.300000 1.800000 -0.300000
v 0.300000 0.000000 0.300000
v 0.300000 1.800000 0.300000
v -0.300000 0.000000 -0.300000
v -0.300000 1.800000 -0.300000
v -0.300000 0.000000 0.300000
v -0.300000 1.800000 0.300000
v 0.300000 2.199701 -0.300000
v -0.300000 2.199701 -0.300000
v 0.300000 2.199701 -0.300000
v 0.300000 1.800000 0.300000
v -0.300000 1.800000 0.300000
v -0.300000 2.199701 -0.300000
vn -1.0000 -0.0000 -0.0000
vn -0.0000 -0.0000 -1.0000
vn 1.0000 -0.0000 -0.0000
vn -0.0000 -0.0000 1.0000
vn -0.0000 -1.0000 -0.0000
vn -0.0000 1.0000 -0.0000
vn -0.0000 0.6428 -0.7660
vn -0.0000 -0.6428 0.7660
vn -0.0000 -0.7660 -0.6428
vn -0.0000 0.7660 0.6428
vn -0.0000 0.8322 0.5544
vt 0.598860 0.336485
vt 0.598860 0.225453
vt 0.709892 0.225453
vt 0.709892 0.336485
vt 0.598860 0.448230
vt 0.598860 0.337199
vt 0.709891 0.337199
vt 0.709892 0.448230
vt 0.710837 0.000357
vt 0.710837 0.111388
vt 0.599805 0.111388
vt 0.599805 0.000357
vt 0.710837 0.112102
vt 0.710837 0.223134
vt 0.599805 0.223134
vt 0.599805 0.112102
vt 0.642791 0.449981
vt 0.642791 0.561013
vt 0.531760 0.561013
vt 0.531760 0.449981
vt 0.642791 0.672758
vt 0.531760 0.672758
vt 0.531760 0.561726
vt 0.642791 0.561726
vt 0.290404 0.000357
vt 0.307556 0.083969
vt 0.307556 0.802719
vt 0.290404 0.719106
vt 0.643505 0.561726
vt 0.728859 0.561726
vt 0.728859 0.672758
vt 0.643505 0.672758
vt 0.289691 0.719106
vt 0.272539 0.802719
vt 0.272539 0.083970
vt 0.289691 0.000357
vt 0.643505 0.449981
vt 0.728859 0.449981
vt 0.728859 0.561013
vt 0.643505 0.561013
vt 0.531046 0.719106
vt 0.420014 0.719106
vt 0.420014 0.000357
vt 0.531046 0.000357
vt 0.419301 0.719106
vt 0.308269 0.719106
vt 0.308269 0.000357
vt 0.419301 0.000357
vt 0.204493 0.000357
vt 0.237803 0.000357
vt 0.237803 0.999643
vt 0.204493 0.999643
vt 0.000357 0.000357
vt 0.033666 0.000357
vt 0.033666 0.999643
vt 0.000357 0.999643
vt 0.034379 0.000357
vt 0.067689 0.000357
vt 0.067689 0.999643
vt 0.034379 0.999643
vt 0.238516 0.000357
vt 0.271825 0.000357
vt 0.271825 0.999643
vt 0.238516 0.999643
vt 0.565069 0.673471
vt 0.565069 0.706781
vt 0.531760 0.706781
vt 0.531760 0.673471
vt 0.599092 0.706781
vt 0.565782 0.706781
vt 0.565782 0.673471
vt 0.599092 0.673471
vt 0.101712 0.000357
vt 0.101712 0.999643
vt 0.068402 0.999643
vt 0.068402 0.000357
vt 0.135734 0.000357
vt 0.135734 0.999643
vt 0.102425 0.999643
vt 0.102425 0.000357
vt 0.169757 0.000357
vt 0.169757 0.999643
vt 0.136448 0.999643
vt 0.136448 0.000357
vt 0.203780 0.000357
vt 0.203780 0.999643
vt 0.170470 0.999643
vt 0.170470 0.000357
vt 0.633115 0.673471
vt 0.633115 0.706781
vt 0.599805 0.706781
vt 0.599805 0.673471
vt 0.565782 0.000357
vt 0.599092 0.000357
vt 0.599092 0.222254
vt 0.565782 0.222254
vt 0.565069 0.224740
vt 0.531760 0.224740
vt 0.531760 0.000357
vt 0.565069 0.000357
vt 0.633828 0.707146
vt 0.633828 0.673491
vt 0.633861 0.673471
vt 0.633861 0.707127
vt 0.634575 0.707146
vt 0.634575 0.673491
vt 0.634608 0.673471
vt 0.634608 0.707127
vt 0.565301 0.225453
vt 0.598146 0.230386
vt 0.565525 0.449095
vt 0.565301 0.449224
vt 0.565315 0.225489
vt 0.531759 0.230414
vt 0.564583 0.225453
vt 0.564588 0.225486
vt 0.564588 0.449109
vt 0.564388 0.449268
s 0
usemtl Material.001
f 1/1/1 2/2/1 4/3/1 3/4/1
f 3/5/2 4/6/2 8/7/2 7/8/2
f 7/9/3 8/10/3 6/11/3 5/12/3
f 5/13/4 6/14/4 2/15/4 1/16/4
f 3/17/5 7/18/5 5/19/5 1/20/5
f 8/21/6 4/22/6 2/23/6 6/24/6
f 9/25/1 10/26/1 12/27/1 11/28/1
f 11/29/7 12/30/7 16/31/7 15/32/7
f 15/33/3 16/34/3 14/35/3 13/36/3
f 13/37/8 14/38/8 10/39/8 9/40/8
f 11/41/9 15/42/9 13/43/9 9/44/9
f 16/45/10 12/46/10 10/47/10 14/48/10
f 17/49/1 19/50/1 20/51/1 18/52/1
f 19/53/2 23/54/2 24/55/2 20/56/2
f 23/57/3 21/58/3 22/59/3 24/60/3
f 21/61/4 17/62/4 18/63/4 22/64/4
f 19/65/6 17/66/6 21/67/6 23/68/6
f 24/69/5 22/70/5 18/71/5 20/72/5
f 25/73/3 26/74/3 28/75/3 27/76/3
f 27/77/4 28/78/4 32/79/4 31/80/4
f 31/81/1 32/82/1 30/83/1 29/84/1
f 29/85/2 30/86/2 26/87/2 25/88/2
f 27/89/5 31/90/5 29/91/5 25/92/5
f 26/93/2 30/94/2 34/95/2 33/96/2
f 35/97/11 38/98/11 37/99/11 36/100/11
f 38/101/6 35/102/6 33/103/6 34/104/6
f 32/105/6 28/106/6 36/107/6 37/108/6
f 28/109/3 26/110/3 33/111/3 35/112/3 36/113/3
f 30/114/1 32/115/1 37/116/1 38/117/1 34/118/1
